<?xml version="1.0" standalone="no"?><!DOCTYPE svg PUBLIC "-//W3C//DTD SVG 1.1//EN" "http://www.w3.org/Graphics/SVG/1.1/DTD/svg11.dtd"><svg width="3815px" height="1671px"
		style="transform-origin: 0px 0px 0px;" version="1.1"
		xmlns="http://www.w3.org/2000/svg" xmlns:xlink="http://www.w3.org/1999/xlink"><defs><style xmlns="http://www.w3.org/2000/svg" type="text/css"><![CDATA[
		* {
			text-rendering: geometricprecision !important;
		}
		]]><![CDATA[@font-face {
  font-family: 'Noto Sans';
  font-style: normal;
  font-weight: 400;
  src: local('Noto Sans'), local('NotoSans'), url("https://mirostatic.com/app/static/a73798e3d459e1bc.woff2") format('woff2');
}
@font-face {
  font-family: 'Noto Sans';
  font-style: italic;
  font-weight: 400;
  src: local('Noto Sans Italic'), local('NotoSans-Italic'), url("https://mirostatic.com/app/static/a8edd710f88715d4.woff2") format('woff2');
}
@font-face {
  font-family: 'Noto Sans';
  font-style: normal;
  font-weight: 500;
  src: local('Noto Sans Medium'), local('NotoSans-Medium'), url("https://mirostatic.com/app/static/006d7e33e60b9e12.woff2") format('woff2');
}
@font-face {
  font-family: 'Noto Sans';
  font-style: italic;
  font-weight: 500;
  src: local('Noto Sans Medium Italic'), local('NotoSans-MediumItalic'), url("https://mirostatic.com/app/static/31387059566a3171.woff2") format('woff2');
}
@font-face {
  font-family: 'Noto Sans';
  font-style: normal;
  font-weight: 600;
  src: local('Noto Sans SemiBold'), local('NotoSans-SemiBold'), url("https://mirostatic.com/app/static/526dd53b40975c37.woff2") format('woff2');
}
@font-face {
  font-family: 'Noto Sans';
  font-style: italic;
  font-weight: 600;
  src: local('Noto Sans SemiBold Italic'), local('NotoSans-SemiBoldItalic'), url("https://mirostatic.com/app/static/e73d4fdd87d7e319.woff2") format('woff2');
}
@font-face {
  font-family: 'Noto Sans';
  font-style: normal;
  font-weight: 700;
  src: local('Noto Sans Bold'), local('NotoSans-Bold'), url("https://mirostatic.com/app/static/9f11d6779c14d2bc.woff2") format('woff2');
}
@font-face {
  font-family: 'Noto Sans';
  font-style: italic;
  font-weight: 700;
  src: local('Noto Sans Bold Italic'), local('NotoSans-BoldItalic'), url("https://mirostatic.com/app/static/888e13e017cedc15.woff2") format('woff2');
}
]]><![CDATA[@font-face {
  font-family: 'OpenSans';
  font-style: normal;
  font-weight: 300;
  font-display: swap;
  src: url("https://mirostatic.com/app/static/800985e1502d12bf.woff2") format('woff2');
}
@font-face {
  font-family: 'OpenSans';
  font-style: normal;
  font-weight: 400;
  font-display: swap;
  src: url("https://mirostatic.com/app/static/d8a7ca42a20caea5.woff2") format('woff2');
}
@font-face {
  font-family: 'OpenSans';
  font-style: italic;
  font-weight: 400;
  font-display: swap;
  src: url("https://mirostatic.com/app/static/3cc74c1d3919bd5c.woff2") format('woff2');
}
@font-face {
  font-family: 'OpenSans';
  font-style: normal;
  font-weight: 600;
  font-display: swap;
  src: url("https://mirostatic.com/app/static/f0481285dc248cf0.woff2") format('woff2');
}
@font-face {
  font-family: 'OpenSans';
  font-style: normal;
  font-weight: 700;
  font-display: swap;
  src: url("https://mirostatic.com/app/static/2f5e8dcf6e47bf00.woff2") format('woff2');
}
@font-face {
  font-family: 'OpenSans';
  font-style: italic;
  font-weight: 700;
  font-display: swap;
  src: url("https://mirostatic.com/app/static/0e625f45b71a26f1.woff2") format('woff2');
}
@font-face {
  font-family: 'OpenSans';
  font-style: normal;
  font-weight: 800;
  font-display: swap;
  src: url("https://mirostatic.com/app/static/645c27eb7d93eca8.woff2") format('woff2');
}
]]><![CDATA[@font-face {
  font-family: 'Noto Sans Hebrew';
  font-style: normal;
  font-weight: 400;
  src: local('Noto Sans Hebrew Regular'), local('Noto Sans Hebrew-Regular'), url("https://mirostatic.com/app/static/7ebe1dcf0343326c.woff2") format('woff2'), url("https://mirostatic.com/app/static/6c11f037d6968262.woff") format('woff');
}
@font-face {
  font-family: 'Noto Sans Hebrew';
  font-style: normal;
  font-weight: 700;
  src: local('Noto Sans Hebrew Bold'), local('Noto Sans Hebrew-Bold'), url("https://mirostatic.com/app/static/d2883e2f177d0dad.woff2") format('woff2'), url("https://mirostatic.com/app/static/8546991909eadbc9.woff") format('woff');
}
]]><![CDATA[@font-face {
  font-family: 'Noto Sans JP';
  font-style: normal;
  font-weight: 400;
  src: local('Noto Sans Japanese Regular'), local('Noto Sans Japanese-Regular'), url("https://mirostatic.com/app/static/9320b3c07ab79383.woff2") format('woff2'), url("https://mirostatic.com/app/static/a43be2cbcfc0b250.woff") format('woff');
}
@font-face {
  font-family: 'Noto Sans JP';
  font-style: normal;
  font-weight: 700;
  src: local('Noto Sans Japanese Bold'), local('Noto Sans Japanese-Bold'), url("https://mirostatic.com/app/static/7ab032c73212439f.woff2") format('woff2'), url("https://mirostatic.com/app/static/29f177f4466bd7a1.woff") format('woff');
}
]]><![CDATA[@font-face {
  font-family: 'Noto Sans KR';
  font-style: normal;
  font-weight: 400;
  src: local(''), url("https://mirostatic.com/app/static/7a5b625774730d22.woff2") format('woff2'), url("https://mirostatic.com/app/static/2d84dc606f1fb88e.woff") format('woff');
}
@font-face {
  font-family: 'Noto Sans KR';
  font-style: normal;
  font-weight: 700;
  src: local(''), url("https://mirostatic.com/app/static/fa5a3d9073cdd58f.woff2") format('woff2'), url("https://mirostatic.com/app/static/7ded243557c83342.woff") format('woff');
}
]]></style><path id="LineHeadArrow2" d="M-12.727272727272727,-7.545454545454545 L0,0 L-12.727272727272727,7.545454545454545 Z"></path></defs><rect id="svg-board-background-color" width="100%" height="100%" fill="#f2f2f2"></rect><g width="3815px" height="1671px"  transform="translate(-0.2, -0.5) scale(1) rotate(0, 1907.5, 835.5)"><svg
	width="3815"
	height="1671"
	style="width:3815px; height: 1671px;"
	class="diagram-widget"
	preserveAspectRatio="none"
	version="1.1"
	xmlns="http://www.w3.org/2000/svg"
>
	<clipPath id="793184321849">
		<rect x="0" y="0" width="3815" height="1671" rx="0" ry="0"></rect>
	</clipPath>
	<g id="Page-1" stroke="none" stroke-width="0" fill="none" fill-rule="evenodd">
		<rect
			class="shape-element shape-element-rect"
			fill="#ffffff"
			fill-opacity="1"
			x="0"
			y="0"
			width="3815"
			height="1671"
			rx="0"
			ry="0"
			clip-path="url(#793184321849)"
		></rect>
	</g>
	<g transform="translate(0, 0)">
		<text x="0" y="14" font-size="14"></text>
	</g>
</svg>
</g><g width="977px" height="804px"  transform="translate(2797.8, 826.5) scale(1) rotate(0, 488.5, 402)"><g><g style="stroke: #7d8297;stroke-width: 2;stroke-opacity: 1;stroke-dasharray: none;stroke-linecap: round;stroke-linejoin: round;fill: #fafafc;fill-opacity: 1"><rect x="0" y="0" width="977" height="804" /></g></g><g><g style="stroke: #7d8297;stroke-width: 2;stroke-opacity: 1;stroke-dasharray: none;stroke-linecap: round;stroke-linejoin: round;fill: transparent;fill-opacity: 0"></g></g><g transform="translate(24, 16)"><text xml:space="preserve" x="433.7587890625" y="14" width="61.482421875" textLength="61.482421875" lengthAdjust="spacingAndGlyphs" letter-spacing="0" font-family='"Arial", Arial, sans-serif, Noto Sans Hebrew, Noto Sans, Noto Sans JP, Noto Sans KR' font-size="14" 
				fill="#656b81" direction="ltr" >Execution</text></g></g><g width="276px" height="120px"  transform="translate(3321.8, 1186.5) scale(1) rotate(0, 138, 60)"><g><g style="stroke: #087429;stroke-width: 2;stroke-opacity: 1;stroke-dasharray: none;stroke-linecap: round;stroke-linejoin: round;fill: #adf0c7;fill-opacity: 1"><rect x="0" y="0" width="276" height="120" rx="8" /></g></g><g><g style="stroke: #087429;stroke-width: 2;stroke-opacity: 1;stroke-dasharray: none;stroke-linecap: round;stroke-linejoin: round;fill: transparent;fill-opacity: 0"></g></g><g transform="translate(16, 16)"><text xml:space="preserve" x="83.08984375" y="42" width="77.8203125" textLength="77.8203125" lengthAdjust="spacingAndGlyphs" letter-spacing="0" font-family='"Arial", Arial, sans-serif, Noto Sans Hebrew, Noto Sans, Noto Sans JP, Noto Sans KR' font-size="14" 
				fill="#222428" direction="ltr" >OS recebida</text><text xml:space="preserve" x="65.97265625" y="58" width="112.0546875" textLength="112.0546875" lengthAdjust="spacingAndGlyphs" letter-spacing="0" font-family='"Arial", Arial, sans-serif, Noto Sans Hebrew, Noto Sans, Noto Sans JP, Noto Sans KR' font-size="14" 
				fill="#222428" direction="ltr" >Diagnóstico inicial</text></g></g><g width="320px" height="120px"  transform="translate(3399.8, 1502.5) scale(1) rotate(0, 160, 60)"><g><g style="stroke: #087429;stroke-width: 2;stroke-opacity: 1;stroke-dasharray: none;stroke-linecap: round;stroke-linejoin: round;fill: #adf0c7;fill-opacity: 1"><rect x="0" y="0" width="320" height="120" rx="8" /></g></g><g><g style="stroke: #087429;stroke-width: 2;stroke-opacity: 1;stroke-dasharray: none;stroke-linecap: round;stroke-linejoin: round;fill: transparent;fill-opacity: 0"></g></g><g transform="translate(16, 16)"><text xml:space="preserve" x="88.36572265625" y="42" width="111.2685546875" textLength="111.2685546875" lengthAdjust="spacingAndGlyphs" letter-spacing="0" font-family='"Arial", Arial, sans-serif, Noto Sans Hebrew, Noto Sans, Noto Sans JP, Noto Sans KR' font-size="14" 
				fill="#222428" direction="ltr" >Orçamento criado</text><text xml:space="preserve" x="85.24169921875" y="58" width="117.5166015625" textLength="117.5166015625" lengthAdjust="spacingAndGlyphs" letter-spacing="0" font-family='"Arial", Arial, sans-serif, Noto Sans Hebrew, Noto Sans, Noto Sans JP, Noto Sans KR' font-size="14" 
				fill="#222428" direction="ltr" >Estoque reservado</text></g></g><g width="316px" height="120px"  transform="translate(3073.8, 942.5) scale(1) rotate(0, 158, 60)"><g><g style="stroke: #bd0909;stroke-width: 2;stroke-opacity: 1;stroke-dasharray: none;stroke-linecap: round;stroke-linejoin: round;fill: #ffc6c6;fill-opacity: 1"><rect x="0" y="0" width="316" height="120" rx="8" /></g></g><g><g style="stroke: #bd0909;stroke-width: 2;stroke-opacity: 1;stroke-dasharray: none;stroke-linecap: round;stroke-linejoin: round;fill: transparent;fill-opacity: 0"></g></g><g transform="translate(16, 16)"><text xml:space="preserve" x="84.79345703125" y="42" width="114.4130859375" textLength="114.4130859375" lengthAdjust="spacingAndGlyphs" letter-spacing="0" font-family='"Arial", Arial, sans-serif, Noto Sans Hebrew, Noto Sans, Noto Sans JP, Noto Sans KR' font-size="14" 
				fill="#222428" direction="ltr" >Estoque devolvido</text><text xml:space="preserve" x="85.18994140625" y="58" width="113.6201171875" textLength="113.6201171875" lengthAdjust="spacingAndGlyphs" letter-spacing="0" font-family='"Arial", Arial, sans-serif, Noto Sans Hebrew, Noto Sans, Noto Sans JP, Noto Sans KR' font-size="14" 
				fill="#222428" direction="ltr" >Volta a EmAnalise</text></g></g><g width="160px" height="120px"  transform="translate(2807.8, 942.5) scale(1) rotate(0, 80, 60)"><g><g style="stroke: #087429;stroke-width: 2;stroke-opacity: 1;stroke-dasharray: none;stroke-linecap: round;stroke-linejoin: round;fill: #adf0c7;fill-opacity: 1"><rect x="0" y="0" width="160" height="120" rx="8" /></g></g><g><g style="stroke: #087429;stroke-width: 2;stroke-opacity: 1;stroke-dasharray: none;stroke-linecap: round;stroke-linejoin: round;fill: transparent;fill-opacity: 0"></g></g><g transform="translate(16, 16)"><text xml:space="preserve" x="7.576171875" y="50" width="112.84765625" textLength="112.84765625" lengthAdjust="spacingAndGlyphs" letter-spacing="0" font-family='"Arial", Arial, sans-serif, Noto Sans Hebrew, Noto Sans, Noto Sans JP, Noto Sans KR' font-size="14" 
				fill="#222428" direction="ltr" >Execução iniciada</text></g></g><g width="160px" height="120px"  transform="translate(2875.8, 1186.5) scale(1) rotate(0, 80, 60)"><g><g style="stroke: #087429;stroke-width: 2;stroke-opacity: 1;stroke-dasharray: none;stroke-linecap: round;stroke-linejoin: round;fill: #adf0c7;fill-opacity: 1"><rect x="0" y="0" width="160" height="120" rx="8" /></g></g><g><g style="stroke: #087429;stroke-width: 2;stroke-opacity: 1;stroke-dasharray: none;stroke-linecap: round;stroke-linejoin: round;fill: transparent;fill-opacity: 0"></g></g><g transform="translate(16, 16)"><text xml:space="preserve" x="21.58984375" y="50" width="84.8203125" textLength="84.8203125" lengthAdjust="spacingAndGlyphs" letter-spacing="0" font-family='"Arial", Arial, sans-serif, Noto Sans Hebrew, Noto Sans, Noto Sans JP, Noto Sans KR' font-size="14" 
				fill="#222428" direction="ltr" >Em execução</text></g></g><g width="160px" height="120px"  transform="translate(3035.8, 1502.5) scale(1) rotate(0, 80, 60)"><g><g style="stroke: #087429;stroke-width: 2;stroke-opacity: 1;stroke-dasharray: none;stroke-linecap: round;stroke-linejoin: round;fill: #adf0c7;fill-opacity: 1"><rect x="0" y="0" width="160" height="120" rx="8" /></g></g><g><g style="stroke: #087429;stroke-width: 2;stroke-opacity: 1;stroke-dasharray: none;stroke-linecap: round;stroke-linejoin: round;fill: transparent;fill-opacity: 0"></g></g><g transform="translate(16, 16)"><text xml:space="preserve" x="9.13818359375" y="50" width="109.7236328125" textLength="109.7236328125" lengthAdjust="spacingAndGlyphs" letter-spacing="0" font-family='"Arial", Arial, sans-serif, Noto Sans Hebrew, Noto Sans, Noto Sans JP, Noto Sans KR' font-size="14" 
				fill="#222428" direction="ltr" >Serviço finalizado</text></g></g><g width="268px" height="120px"  transform="translate(3497.8, 942.5) scale(1) rotate(0, 134, 60)"><g><g style="stroke: #bd0909;stroke-width: 2;stroke-opacity: 1;stroke-dasharray: none;stroke-linecap: round;stroke-linejoin: round;fill: #ffc6c6;fill-opacity: 1"><rect x="0" y="0" width="268" height="120" rx="8" /></g></g><g><g style="stroke: #bd0909;stroke-width: 2;stroke-opacity: 1;stroke-dasharray: none;stroke-linecap: round;stroke-linejoin: round;fill: transparent;fill-opacity: 0"></g></g><g transform="translate(16, 16)"><text xml:space="preserve" x="60.79345703125" y="42" width="114.4130859375" textLength="114.4130859375" lengthAdjust="spacingAndGlyphs" letter-spacing="0" font-family='"Arial", Arial, sans-serif, Noto Sans Hebrew, Noto Sans, Noto Sans JP, Noto Sans KR' font-size="14" 
				fill="#222428" direction="ltr" >Estoque devolvido</text><text xml:space="preserve" x="82.986328125" y="58" width="70.02734375" textLength="70.02734375" lengthAdjust="spacingAndGlyphs" letter-spacing="0" font-family='"Arial", Arial, sans-serif, Noto Sans Hebrew, Noto Sans, Noto Sans JP, Noto Sans KR' font-size="14" 
				fill="#222428" direction="ltr" >(expiração)</text></g></g><g width="1172px" height="1276px"  transform="translate(1085.8, 39.5) scale(1) rotate(0, 586, 638)"><g><g style="stroke: #7d8297;stroke-width: 2;stroke-opacity: 1;stroke-dasharray: none;stroke-linecap: round;stroke-linejoin: round;fill: #fafafc;fill-opacity: 1"><rect x="0" y="0" width="1172" height="1276" /></g></g><g><g style="stroke: #7d8297;stroke-width: 2;stroke-opacity: 1;stroke-dasharray: none;stroke-linecap: round;stroke-linejoin: round;fill: transparent;fill-opacity: 0"></g></g><g transform="translate(24, 16)"><text xml:space="preserve" x="543.32421875" y="14" width="37.3515625" textLength="37.3515625" lengthAdjust="spacingAndGlyphs" letter-spacing="0" font-family='"Arial", Arial, sans-serif, Noto Sans Hebrew, Noto Sans, Noto Sans JP, Noto Sans KR' font-size="14" 
				fill="#656b81" direction="ltr" >Billing</text></g></g><g width="344px" height="120px"  transform="translate(1907.8, 158.5) scale(1) rotate(0, 172, 60)"><g><g style="stroke: #6631d7;stroke-width: 2;stroke-opacity: 1;stroke-dasharray: none;stroke-linecap: round;stroke-linejoin: round;fill: #dedaff;fill-opacity: 1"><rect x="0" y="0" width="344" height="120" rx="8" /></g></g><g><g style="stroke: #6631d7;stroke-width: 2;stroke-opacity: 1;stroke-dasharray: none;stroke-linecap: round;stroke-linejoin: round;fill: transparent;fill-opacity: 0"></g></g><g transform="translate(16, 16)"><text xml:space="preserve" x="88.3037109375" y="42" width="135.392578125" textLength="135.392578125" lengthAdjust="spacingAndGlyphs" letter-spacing="0" font-family='"Arial", Arial, sans-serif, Noto Sans Hebrew, Noto Sans, Noto Sans JP, Noto Sans KR' font-size="14" 
				fill="#222428" direction="ltr" >Orçamento registrado</text><text xml:space="preserve" x="99.76416015625" y="58" width="112.4716796875" textLength="112.4716796875" lengthAdjust="spacingAndGlyphs" letter-spacing="0" font-family='"Arial", Arial, sans-serif, Noto Sans Hebrew, Noto Sans, Noto Sans JP, Noto Sans KR' font-size="14" 
				fill="#222428" direction="ltr" >Snapshot + 3 dias</text></g></g><g width="384px" height="120px"  transform="translate(1867.8, 386.5) scale(1) rotate(0, 192, 60)"><g><g style="stroke: #6631d7;stroke-width: 2;stroke-opacity: 1;stroke-dasharray: none;stroke-linecap: round;stroke-linejoin: round;fill: #dedaff;fill-opacity: 1"><rect x="0" y="0" width="384" height="120" rx="8" /></g></g><g><g style="stroke: #6631d7;stroke-width: 2;stroke-opacity: 1;stroke-dasharray: none;stroke-linecap: round;stroke-linejoin: round;fill: transparent;fill-opacity: 0"></g></g><g transform="translate(16, 16)"><text xml:space="preserve" x="103.22119140625" y="42" width="145.5576171875" textLength="145.5576171875" lengthAdjust="spacingAndGlyphs" letter-spacing="0" font-family='"Arial", Arial, sans-serif, Noto Sans Hebrew, Noto Sans, Noto Sans JP, Noto Sans KR' font-size="14" 
				fill="#222428" direction="ltr" >Aguardando aprovação</text><text xml:space="preserve" x="104.783203125" y="58" width="142.43359375" textLength="142.43359375" lengthAdjust="spacingAndGlyphs" letter-spacing="0" font-family='"Arial", Arial, sans-serif, Noto Sans Hebrew, Noto Sans, Noto Sans JP, Noto Sans KR' font-size="14" 
				fill="#222428" direction="ltr" >Link enviado ao cliente</text></g></g><g width="200px" height="120px"  transform="translate(1959.8, 630.5) scale(1) rotate(0, 100, 60)"><g><g style="stroke: #305bab;stroke-width: 2;stroke-opacity: 1;stroke-dasharray: none;stroke-linecap: round;stroke-linejoin: round;fill: #c6dcff;fill-opacity: 1"><path d="M 50 30 L95.88403395657978,2.4695796260521266A8,8,0,0,1,104.11596604342022,2.4695796260521266 L188.5667609904994,53.140056594299644A8,8,0,0,1,188.5667609904994,66.85994340570035 L104.11596604342022,117.53042037394788A8,8,0,0,1,95.88403395657978,117.53042037394788 L11.43323900950059,66.85994340570035A8,8,0,0,1,11.43323900950059,53.140056594299644 Z Z"/></g></g><g><g style="stroke: #305bab;stroke-width: 2;stroke-opacity: 1;stroke-dasharray: none;stroke-linecap: round;stroke-linejoin: round;fill: transparent;fill-opacity: 0"></g></g><g transform="translate(50, 30)"><text xml:space="preserve" x="0.96923828125" y="36" width="98.0615234375" textLength="98.0615234375" lengthAdjust="spacingAndGlyphs" letter-spacing="0" font-family='"Arial", Arial, sans-serif, Noto Sans Hebrew, Noto Sans, Noto Sans JP, Noto Sans KR' font-size="14" 
				fill="#222428" direction="ltr" >Cliente aprova?</text></g></g><g width="312px" height="120px"  transform="translate(1811.8, 942.5) scale(1) rotate(0, 156, 60)"><g><g style="stroke: #6631d7;stroke-width: 2;stroke-opacity: 1;stroke-dasharray: none;stroke-linecap: round;stroke-linejoin: round;fill: #dedaff;fill-opacity: 1"><rect x="0" y="0" width="312" height="120" rx="8" /></g></g><g><g style="stroke: #6631d7;stroke-width: 2;stroke-opacity: 1;stroke-dasharray: none;stroke-linecap: round;stroke-linejoin: round;fill: transparent;fill-opacity: 0"></g></g><g transform="translate(16, 16)"><text xml:space="preserve" x="74.24169921875" y="42" width="131.5166015625" textLength="131.5166015625" lengthAdjust="spacingAndGlyphs" letter-spacing="0" font-family='"Arial", Arial, sans-serif, Noto Sans Hebrew, Noto Sans, Noto Sans JP, Noto Sans KR' font-size="14" 
				fill="#222428" direction="ltr" >Orçamento aprovado</text><text xml:space="preserve" x="92.91748046875" y="58" width="94.1650390625" textLength="94.1650390625" lengthAdjust="spacingAndGlyphs" letter-spacing="0" font-family='"Arial", Arial, sans-serif, Noto Sans Hebrew, Noto Sans, Noto Sans JP, Noto Sans KR' font-size="14" 
				fill="#222428" direction="ltr" >Inicia cobrança</text></g></g><g width="372px" height="120px"  transform="translate(1749.8, 1186.5) scale(1) rotate(0, 186, 60)"><g><g style="stroke: #6631d7;stroke-width: 2;stroke-opacity: 1;stroke-dasharray: none;stroke-linecap: round;stroke-linejoin: round;fill: #dedaff;fill-opacity: 1"><rect x="0" y="0" width="372" height="120" rx="8" /></g></g><g><g style="stroke: #6631d7;stroke-width: 2;stroke-opacity: 1;stroke-dasharray: none;stroke-linecap: round;stroke-linejoin: round;fill: transparent;fill-opacity: 0"></g></g><g transform="translate(16, 16)"><text xml:space="preserve" x="86.71435546875" y="42" width="166.5712890625" textLength="166.5712890625" lengthAdjust="spacingAndGlyphs" letter-spacing="0" font-family='"Arial", Arial, sans-serif, Noto Sans Hebrew, Noto Sans, Noto Sans JP, Noto Sans KR' font-size="14" 
				fill="#222428" direction="ltr" >Link de pagamento gerado</text><text xml:space="preserve" x="114.09228515625" y="58" width="111.8154296875" textLength="111.8154296875" lengthAdjust="spacingAndGlyphs" letter-spacing="0" font-family='"Arial", Arial, sans-serif, Noto Sans Hebrew, Noto Sans, Noto Sans JP, Noto Sans KR' font-size="14" 
				fill="#222428" direction="ltr" >Valor do snapshot</text></g></g><g width="300px" height="120px"  transform="translate(1497.8, 158.5) scale(1) rotate(0, 150, 60)"><g><g style="stroke: #6631d7;stroke-width: 2;stroke-opacity: 1;stroke-dasharray: none;stroke-linecap: round;stroke-linejoin: round;fill: #dedaff;fill-opacity: 1"><rect x="0" y="0" width="300" height="120" rx="8" /></g></g><g><g style="stroke: #6631d7;stroke-width: 2;stroke-opacity: 1;stroke-dasharray: none;stroke-linecap: round;stroke-linejoin: round;fill: transparent;fill-opacity: 0"></g></g><g transform="translate(16, 16)"><text xml:space="preserve" x="61.62451171875" y="42" width="144.7509765625" textLength="144.7509765625" lengthAdjust="spacingAndGlyphs" letter-spacing="0" font-family='"Arial", Arial, sans-serif, Noto Sans Hebrew, Noto Sans, Noto Sans JP, Noto Sans KR' font-size="14" 
				fill="#222428" direction="ltr" >Pagamento confirmado</text><text xml:space="preserve" x="100.1484375" y="58" width="67.703125" textLength="67.703125" lengthAdjust="spacingAndGlyphs" letter-spacing="0" font-family='"Arial", Arial, sans-serif, Noto Sans Hebrew, Noto Sans, Noto Sans JP, Noto Sans KR' font-size="14" 
				fill="#222428" direction="ltr" >Registrado</text></g></g><g width="296px" height="120px"  transform="translate(1095.8, 158.5) scale(1) rotate(0, 148, 60)"><g><g style="stroke: #bd0909;stroke-width: 2;stroke-opacity: 1;stroke-dasharray: none;stroke-linecap: round;stroke-linejoin: round;fill: #ffc6c6;fill-opacity: 1"><rect x="0" y="0" width="296" height="120" rx="8" /></g></g><g><g style="stroke: #bd0909;stroke-width: 2;stroke-opacity: 1;stroke-dasharray: none;stroke-linecap: round;stroke-linejoin: round;fill: transparent;fill-opacity: 0"></g></g><g transform="translate(16, 16)"><text xml:space="preserve" x="68.57958984375" y="42" width="126.8408203125" textLength="126.8408203125" lengthAdjust="spacingAndGlyphs" letter-spacing="0" font-family='"Arial", Arial, sans-serif, Noto Sans Hebrew, Noto Sans, Noto Sans JP, Noto Sans KR' font-size="14" 
				fill="#222428" direction="ltr" >Orçamento expirado</text><text xml:space="preserve" x="90.3623046875" y="58" width="83.275390625" textLength="83.275390625" lengthAdjust="spacingAndGlyphs" letter-spacing="0" font-family='"Arial", Arial, sans-serif, Noto Sans Hebrew, Noto Sans, Noto Sans JP, Noto Sans KR' font-size="14" 
				fill="#222428" direction="ltr" >Job no Billing</text></g></g><g width="2750px" height="246px"  transform="translate(39.8, 1384.5) scale(1) rotate(0, 1375, 123)"><g><g style="stroke: #7d8297;stroke-width: 2;stroke-opacity: 1;stroke-dasharray: none;stroke-linecap: round;stroke-linejoin: round;fill: #fafafc;fill-opacity: 1"><rect x="0" y="0" width="2750" height="246" /></g></g><g><g style="stroke: #7d8297;stroke-width: 2;stroke-opacity: 1;stroke-dasharray: none;stroke-linecap: round;stroke-linejoin: round;fill: transparent;fill-opacity: 0"></g></g><g transform="translate(24, 16)"><text xml:space="preserve" x="1311.45751953125" y="14" width="79.0849609375" textLength="79.0849609375" lengthAdjust="spacingAndGlyphs" letter-spacing="0" font-family='"Arial", Arial, sans-serif, Noto Sans Hebrew, Noto Sans, Noto Sans JP, Noto Sans KR' font-size="14" 
				fill="#656b81" direction="ltr" >Work Orders</text></g></g><g width="256px" height="120px"  transform="translate(1463.8, 1502.5) scale(1) rotate(0, 128, 60)"><g><g style="stroke: #305bab;stroke-width: 2;stroke-opacity: 1;stroke-dasharray: none;stroke-linecap: round;stroke-linejoin: round;fill: #c6dcff;fill-opacity: 1"><rect x="0" y="0" width="256" height="120" rx="59" /></g></g><g><g style="stroke: #305bab;stroke-width: 2;stroke-opacity: 1;stroke-dasharray: none;stroke-linecap: round;stroke-linejoin: round;fill: transparent;fill-opacity: 0"></g></g><g transform="translate(16, 16)"><text xml:space="preserve" x="80.8759765625" y="42" width="62.248046875" textLength="62.248046875" lengthAdjust="spacingAndGlyphs" letter-spacing="0" font-family='"Arial", Arial, sans-serif, Noto Sans Hebrew, Noto Sans, Noto Sans JP, Noto Sans KR' font-size="14" 
				fill="#222428" direction="ltr" >OS criada</text><text xml:space="preserve" x="55.58984375" y="58" width="112.8203125" textLength="112.8203125" lengthAdjust="spacingAndGlyphs" letter-spacing="0" font-family='"Arial", Arial, sans-serif, Noto Sans Hebrew, Noto Sans, Noto Sans JP, Noto Sans KR' font-size="14" 
				fill="#222428" direction="ltr" >(e-​mail disparado)</text></g></g><g width="368px" height="120px"  transform="translate(987.8, 1502.5) scale(1) rotate(0, 184, 60)"><g><g style="stroke: #af7e02;stroke-width: 2;stroke-opacity: 1;stroke-dasharray: none;stroke-linecap: round;stroke-linejoin: round;fill: #fff6b6;fill-opacity: 1"><rect x="0" y="0" width="368" height="120" rx="8" /></g></g><g><g style="stroke: #af7e02;stroke-width: 2;stroke-opacity: 1;stroke-dasharray: none;stroke-linecap: round;stroke-linejoin: round;fill: transparent;fill-opacity: 0"></g></g><g transform="translate(16, 16)"><text xml:space="preserve" x="108.08642578125" y="42" width="119.8271484375" textLength="119.8271484375" lengthAdjust="spacingAndGlyphs" letter-spacing="0" font-family='"Arial", Arial, sans-serif, Noto Sans Hebrew, Noto Sans, Noto Sans JP, Noto Sans KR' font-size="14" 
				fill="#222428" direction="ltr" >WO: OS atualizada</text><text xml:space="preserve" x="89.3935546875" y="58" width="157.212890625" textLength="157.212890625" lengthAdjust="spacingAndGlyphs" letter-spacing="0" font-family='"Arial", Arial, sans-serif, Noto Sans Hebrew, Noto Sans, Noto Sans JP, Noto Sans KR' font-size="14" 
				fill="#222428" direction="ltr" >Aguarda novo orçamento</text></g></g><g width="348px" height="120px"  transform="translate(529.8, 1502.5) scale(1) rotate(0, 174, 60)"><g><g style="stroke: #af7e02;stroke-width: 2;stroke-opacity: 1;stroke-dasharray: none;stroke-linecap: round;stroke-linejoin: round;fill: #fff6b6;fill-opacity: 1"><rect x="0" y="0" width="348" height="120" rx="8" /></g></g><g><g style="stroke: #af7e02;stroke-width: 2;stroke-opacity: 1;stroke-dasharray: none;stroke-linecap: round;stroke-linejoin: round;fill: transparent;fill-opacity: 0"></g></g><g transform="translate(16, 16)"><text xml:space="preserve" x="82.51416015625" y="42" width="150.9716796875" textLength="150.9716796875" lengthAdjust="spacingAndGlyphs" letter-spacing="0" font-family='"Arial", Arial, sans-serif, Noto Sans Hebrew, Noto Sans, Noto Sans JP, Noto Sans KR' font-size="14" 
				fill="#222428" direction="ltr" >WO: Link de pagamento</text><text xml:space="preserve" x="106.25537109375" y="58" width="103.4892578125" textLength="103.4892578125" lengthAdjust="spacingAndGlyphs" letter-spacing="0" font-family='"Arial", Arial, sans-serif, Noto Sans Hebrew, Noto Sans, Noto Sans JP, Noto Sans KR' font-size="14" 
				fill="#222428" direction="ltr" >E-​mail ao cliente</text></g></g><g width="364px" height="120px"  transform="translate(1825.8, 1502.5) scale(1) rotate(0, 182, 60)"><g><g style="stroke: #af7e02;stroke-width: 2;stroke-opacity: 1;stroke-dasharray: none;stroke-linecap: round;stroke-linejoin: round;fill: #fff6b6;fill-opacity: 1"><rect x="0" y="0" width="364" height="120" rx="8" /></g></g><g><g style="stroke: #af7e02;stroke-width: 2;stroke-opacity: 1;stroke-dasharray: none;stroke-linecap: round;stroke-linejoin: round;fill: transparent;fill-opacity: 0"></g></g><g transform="translate(16, 16)"><text xml:space="preserve" x="95.38818359375" y="42" width="141.2236328125" textLength="141.2236328125" lengthAdjust="spacingAndGlyphs" letter-spacing="0" font-family='"Arial", Arial, sans-serif, Noto Sans Hebrew, Noto Sans, Noto Sans JP, Noto Sans KR' font-size="14" 
				fill="#222428" direction="ltr" >WO: status=Finalizado</text><text xml:space="preserve" x="102.5625" y="58" width="126.875" textLength="126.875" lengthAdjust="spacingAndGlyphs" letter-spacing="0" font-family='"Arial", Arial, sans-serif, Noto Sans Hebrew, Noto Sans, Noto Sans JP, Noto Sans KR' font-size="14" 
				fill="#222428" direction="ltr" >Aguarda pagamento</text></g></g><g width="480px" height="120px"  transform="translate(2299.8, 1502.5) scale(1) rotate(0, 240, 60)"><g><g style="stroke: #608520;stroke-width: 2;stroke-opacity: 1;stroke-dasharray: none;stroke-linecap: round;stroke-linejoin: round;fill: #dbfaad;fill-opacity: 1"><rect x="0" y="0" width="480" height="120" rx="59" /></g></g><g><g style="stroke: #608520;stroke-width: 2;stroke-opacity: 1;stroke-dasharray: none;stroke-linecap: round;stroke-linejoin: round;fill: transparent;fill-opacity: 0"></g></g><g transform="translate(16, 16)"><text xml:space="preserve" x="113.30908203125" y="42" width="221.3818359375" textLength="221.3818359375" lengthAdjust="spacingAndGlyphs" letter-spacing="0" font-family='"Arial", Arial, sans-serif, Noto Sans Hebrew, Noto Sans, Noto Sans JP, Noto Sans KR' font-size="14" 
				fill="#222428" direction="ltr" >WO: status=PagamentoConfirmado</text><text xml:space="preserve" x="151.826171875" y="58" width="144.34765625" textLength="144.34765625" lengthAdjust="spacingAndGlyphs" letter-spacing="0" font-family='"Arial", Arial, sans-serif, Noto Sans Hebrew, Noto Sans, Noto Sans JP, Noto Sans KR' font-size="14" 
				fill="#222428" direction="ltr" >Libera retirada + e-​mail</text></g></g><g width="376px" height="120px"  transform="translate(47.8, 1502.5) scale(1) rotate(0, 188, 60)"><g><g style="stroke: #bd0909;stroke-width: 2;stroke-opacity: 1;stroke-dasharray: none;stroke-linecap: round;stroke-linejoin: round;fill: #ffc6c6;fill-opacity: 1"><rect x="0" y="0" width="376" height="120" rx="8" /></g></g><g><g style="stroke: #bd0909;stroke-width: 2;stroke-opacity: 1;stroke-dasharray: none;stroke-linecap: round;stroke-linejoin: round;fill: transparent;fill-opacity: 0"></g></g><g transform="translate(16, 16)"><text xml:space="preserve" x="117.927734375" y="42" width="108.14453125" textLength="108.14453125" lengthAdjust="spacingAndGlyphs" letter-spacing="0" font-family='"Arial", Arial, sans-serif, Noto Sans Hebrew, Noto Sans, Noto Sans JP, Noto Sans KR' font-size="14" 
				fill="#222428" direction="ltr" >WO: OS reaberta</text><text xml:space="preserve" x="86.4072265625" y="58" width="171.185546875" textLength="171.185546875" lengthAdjust="spacingAndGlyphs" letter-spacing="0" font-family='"Arial", Arial, sans-serif, Noto Sans Hebrew, Noto Sans, Noto Sans JP, Noto Sans KR' font-size="14" 
				fill="#222428" direction="ltr" >E-​mail: orçamento expirado</text></g></g><g width="0px" height="196px"  transform="translate(3498, 1306.5) scale(1) rotate(0, 0, 98)"><path stroke-linecap="butt" 
			stroke="#908e8e" stroke-width="2" fill="transparent"
			d="M 0 0 L 0 196" /> <use xlink:href="#LineHeadArrow2" fill="#908e8e"
			 transform="translate(0, 196)  rotate(90) "  /> </g><g width="1498px" height="1344px"  transform="translate(2251.8, 218.5) scale(1) rotate(0, 749, 672)"><path stroke-linecap="butt" 
			stroke="#908e8e" stroke-width="2" fill="transparent"
			d="M 1468 1344 L 1490 1344 Q 1498 1344 1498 1336 L 1498 8 Q 1498 0 1490 0 L 0 0" clip-path="url(#LineHeadMaskoR8Th8)"/> <use xlink:href="#LineHeadArrow2" fill="#908e8e"
			 transform="translate(0, 0)  rotate(180) "  /> <clipPath id="LineHeadMaskoR8Th8">
				<path d="M -2 -2 M 1383 -2 L 1487 -2 L 1487 10 L 1383 10 M -2 -2 L 3815 -2 L 3815 1671 L -2 1671" fill-rule="evenodd" clip-rule="evenodd" />
			</clipPath><g width="102" height="20" transform="translate(1385, -10) scale(1) rotate(0)"><text xml:space="preserve" x="0.264068603515625" y="14" width="101.47186279296875" textLength="101.47186279296875" lengthAdjust="spacingAndGlyphs" letter-spacing="0" font-family='"Noto Sans", Helvetica, OpenSans, Arial, sans-serif, Noto Sans Hebrew, Noto Sans, Noto Sans JP, Noto Sans KR' font-size="14" 
				fill="#222428" direction="ltr" >budget-​created</text></g></g><g width="1911px" height="440px"  transform="translate(1224.6, 1062.5) scale(1) rotate(0, 955.5, 220)"><path stroke-linecap="butt" 
			stroke="#908e8e" stroke-width="2" fill="transparent"
			d="M 1911.0000000000002 0 L 1911.0000000000002 212 Q 1911.0000000000002 220 1903.0000000000002 220 L 8 220 Q 0 220 0 228 L 0 440" clip-path="url(#LineHeadMaskvaRceF)"/> <use xlink:href="#LineHeadArrow2" fill="#908e8e"
			 transform="translate(0, 440)  rotate(90) "  /> <clipPath id="LineHeadMaskvaRceF">
				<path d="M -2 -2 M 898.5000000000003 198 L 1010.5000000000003 198 L 1010.5000000000003 240 L 898.5000000000003 240 M -2 -2 L 3815 -2 L 3815 1671 L -2 1671" fill-rule="evenodd" clip-rule="evenodd" />
			</clipPath><g width="110" height="40" transform="translate(900.5000000000003, 200) scale(1) rotate(0)"><text xml:space="preserve" x="5.5030517578125" y="14" width="98.993896484375" textLength="98.993896484375" lengthAdjust="spacingAndGlyphs" letter-spacing="0" font-family='"Noto Sans", Helvetica, OpenSans, Arial, sans-serif, Noto Sans Hebrew, Noto Sans, Noto Sans JP, Noto Sans KR' font-size="14" 
				fill="#222428" direction="ltr" >budget-​revised</text><text xml:space="preserve" x="0.47005462646484375" y="34" width="109.05989074707031" textLength="109.05989074707031" lengthAdjust="spacingAndGlyphs" letter-spacing="0" font-family='"Noto Sans", Helvetica, OpenSans, Arial, sans-serif, Noto Sans Hebrew, Noto Sans, Noto Sans JP, Noto Sans KR' font-size="14" 
				fill="#222428" direction="ltr" >(approved: false)</text></g></g><g width="0px" height="124px"  transform="translate(3355.8, 1062.5) scale(1) rotate(0, 0, 62)"><path stroke-linecap="butt" 
			stroke="#908e8e" stroke-width="2" fill="transparent"
			d="M 0 0 L 0 124" clip-path="url(#LineHeadMaskg8Y3PM)"/> <use xlink:href="#LineHeadArrow2" fill="#908e8e"
			 transform="translate(0, 124)  rotate(90) "  /> <clipPath id="LineHeadMaskg8Y3PM">
				<path d="M -2 -2 M -2 50 L 45.5 50 L 45.5 72 L -2 72 M -2 -2 L 3815 -2 L 3815 1671 L -2 1671" fill-rule="evenodd" clip-rule="evenodd" />
			</clipPath><g width="91" height="20" transform="translate(-45.5, 52) scale(1) rotate(0)"><text xml:space="preserve" x="0.30805206298828125" y="14" width="90.38389587402344" textLength="90.38389587402344" lengthAdjust="spacingAndGlyphs" letter-spacing="0" font-family='"Noto Sans", Helvetica, OpenSans, Arial, sans-serif, Noto Sans Hebrew, Noto Sans, Noto Sans JP, Noto Sans KR' font-size="14" 
				fill="#222428" direction="ltr" >volta ao início</text></g></g><g width="0px" height="124px"  transform="translate(2920.8, 1062.5) scale(1) rotate(0, 0, 62)"><path stroke-linecap="butt" 
			stroke="#908e8e" stroke-width="2" fill="transparent"
			d="M 7.105427357601002e-15 0 L 7.105427357601002e-15 62 Q 7.105427357601002e-15 62 3.552713678800501e-15 62 L 3.552713678800501e-15 62 Q 0 62 0 62 L 0 124" /> <use xlink:href="#LineHeadArrow2" fill="#908e8e"
			 transform="translate(0, 124)  rotate(90) "  /> </g><g width="30px" height="256px"  transform="translate(3035.8, 1246.5) scale(1) rotate(0, 15, 128)"><path stroke-linecap="butt" 
			stroke="#908e8e" stroke-width="2" fill="transparent"
			d="M 0 0 L 22 0 Q 30 0 30 8 L 30 150 Q 30 158 22 158 L 21.5 158 Q 13.5 158 13.5 166 L 13.5 256" /> <use xlink:href="#LineHeadArrow2" fill="#908e8e"
			 transform="translate(13.5, 256)  rotate(90) "  /> </g><g width="887.2px" height="30px"  transform="translate(2174.6, 1472.5) scale(1) rotate(0, 443.6, 15)"><path stroke-linecap="butt" 
			stroke="#908e8e" stroke-width="2" fill="transparent"
			d="M 887.1999999999998 30 L 887.1999999999998 8 Q 887.1999999999998 0 879.1999999999998 0 L 8 0 Q 0 0 0 8 L 0 30" clip-path="url(#LineHeadMaskwKJcLX)"/> <use xlink:href="#LineHeadArrow2" fill="#908e8e"
			 transform="translate(0, 30)  rotate(90) "  /> <clipPath id="LineHeadMaskwKJcLX">
				<path d="M -2 -2 M 351.0999999999999 -2 L 534.0999999999999 -2 L 534.0999999999999 20 L 351.0999999999999 20 M -2 -2 L 3815 -2 L 3815 1671 L -2 1671" fill-rule="evenodd" clip-rule="evenodd" />
			</clipPath><g width="181" height="40" transform="translate(353.0999999999999, -20) scale(1) rotate(0)"><text xml:space="preserve" x="0.7321014404296875" y="14" width="179.53579711914062" textLength="179.53579711914062" lengthAdjust="spacingAndGlyphs" letter-spacing="0" font-family='"Noto Sans", Helvetica, OpenSans, Arial, sans-serif, Noto Sans Hebrew, Noto Sans, Noto Sans JP, Noto Sans KR' font-size="14" 
				fill="#222428" direction="ltr" >work-​order-​status-​changed</text><text xml:space="preserve" x="29.530075073242188" y="34" width="121.93984985351562" textLength="121.93984985351562" lengthAdjust="spacingAndGlyphs" letter-spacing="0" font-family='"Noto Sans", Helvetica, OpenSans, Arial, sans-serif, Noto Sans Hebrew, Noto Sans, Noto Sans JP, Noto Sans KR' font-size="14" 
				fill="#222428" direction="ltr" >(status: Finalizado)</text></g></g><g width="0px" height="124px"  transform="translate(3547.3, 1062.5) scale(1) rotate(0, 0, 62)"><path stroke-linecap="butt" 
			stroke="#908e8e" stroke-width="2" fill="transparent"
			d="M 0 0 L 0 124" clip-path="url(#LineHeadMaskUU7OuE)"/> <use xlink:href="#LineHeadArrow2" fill="#908e8e"
			 transform="translate(0, 124)  rotate(90) "  /> <clipPath id="LineHeadMaskUU7OuE">
				<path d="M -2 -2 M -2 50 L 54 50 L 54 72 L -2 72 M -2 -2 L 3815 -2 L 3815 1671 L -2 1671" fill-rule="evenodd" clip-rule="evenodd" />
			</clipPath><g width="108" height="20" transform="translate(-54, 52) scale(1) rotate(0)"><text xml:space="preserve" x="0.3240509033203125" y="14" width="107.35189819335938" textLength="107.35189819335938" lengthAdjust="spacingAndGlyphs" letter-spacing="0" font-family='"Noto Sans", Helvetica, OpenSans, Arial, sans-serif, Noto Sans Hebrew, Noto Sans, Noto Sans JP, Noto Sans KR' font-size="14" 
				fill="#222428" direction="ltr" >devolve estoque</text></g></g><g width="2px" height="108px"  transform="translate(2077.8, 278.5) scale(1) rotate(0, 1, 54)"><path stroke-linecap="butt" 
			stroke="#908e8e" stroke-width="2" fill="transparent"
			d="M 2 0 L 2 53 Q 2 54 1 54 L 1 54 Q 0 54 0 55 L 0 108" /> <use xlink:href="#LineHeadArrow2" fill="#908e8e"
			 transform="translate(0, 108)  rotate(90) "  /> </g><g width="0px" height="124px"  transform="translate(2059.8, 506.5) scale(1) rotate(0, 0, 62)"><path stroke-linecap="butt" 
			stroke="#908e8e" stroke-width="2" fill="transparent"
			d="M 0 0 L 0 124" /> <use xlink:href="#LineHeadArrow2" fill="#908e8e"
			 transform="translate(0, 124)  rotate(90) "  /> </g><g width="0px" height="203.43px"  transform="translate(2040.3, 739.07) scale(1) rotate(0, 0, 101.715)"><path stroke-linecap="butt" 
			stroke="#908e8e" stroke-width="2" fill="transparent"
			d="M 0 0 L 0 203.42999999999984" clip-path="url(#LineHeadMaskpOwTF6)"/> <use xlink:href="#LineHeadArrow2" fill="#908e8e"
			 transform="translate(0, 203.42999999999984)  rotate(90) "  /> <clipPath id="LineHeadMaskpOwTF6">
				<path d="M -2 -2 M -2 89.71499999999992 L 32 89.71499999999992 L 32 111.71499999999992 L -2 111.71499999999992 M -2 -2 L 3815 -2 L 3815 1671 L -2 1671" fill-rule="evenodd" clip-rule="evenodd" />
			</clipPath><g width="64" height="20" transform="translate(-32, 91.71499999999992) scale(1) rotate(0)"><text xml:space="preserve" x="0.35303497314453125" y="14" width="63.29393005371094" textLength="63.29393005371094" lengthAdjust="spacingAndGlyphs" letter-spacing="0" font-family='"Noto Sans", Helvetica, OpenSans, Arial, sans-serif, Noto Sans Hebrew, Noto Sans, Noto Sans JP, Noto Sans KR' font-size="14" 
				fill="#222428" direction="ltr" >Aprovado</text></g></g><g width="1072px" height="252px"  transform="translate(2159.8, 690.5) scale(1) rotate(0, 536, 126)"><path stroke-linecap="butt" 
			stroke="#908e8e" stroke-width="2" fill="transparent"
			d="M 0 0 L 1064 0 Q 1072 0 1072 8 L 1072 252" clip-path="url(#LineHeadMask9wtTig)"/> <use xlink:href="#LineHeadArrow2" fill="#908e8e"
			 transform="translate(1072, 252)  rotate(90) "  /> <clipPath id="LineHeadMask9wtTig">
				<path d="M -2 -2 M 628.5 -2 L 693.5 -2 L 693.5 10 L 628.5 10 M -2 -2 L 3815 -2 L 3815 1671 L -2 1671" fill-rule="evenodd" clip-rule="evenodd" />
			</clipPath><g width="63" height="20" transform="translate(630.5, -10) scale(1) rotate(0)"><text xml:space="preserve" x="0.6440353393554688" y="14" width="61.71192932128906" textLength="61.71192932128906" lengthAdjust="spacingAndGlyphs" letter-spacing="0" font-family='"Noto Sans", Helvetica, OpenSans, Arial, sans-serif, Noto Sans Hebrew, Noto Sans, Noto Sans JP, Noto Sans KR' font-size="14" 
				fill="#222428" direction="ltr" >Rejeitado</text></g></g><g width="2px" height="124px"  transform="translate(1965.8, 1062.5) scale(1) rotate(0, 1, 62)"><path stroke-linecap="butt" 
			stroke="#908e8e" stroke-width="2" fill="transparent"
			d="M 2 0 L 2 61 Q 2 62 1 62 L 1 62 Q 0 62 0 63 L 0 124" /> <use xlink:href="#LineHeadArrow2" fill="#908e8e"
			 transform="translate(0, 124)  rotate(90) "  /> </g><g width="1046px" height="256px"  transform="translate(703.8, 1246.5) scale(1) rotate(0, 523, 128)"><path stroke-linecap="butt" 
			stroke="#908e8e" stroke-width="2" fill="transparent"
			d="M 1046 0 L 8 0 Q 0 0 0 8 L 0 256" clip-path="url(#LineHeadMaskjK6KFu)"/> <use xlink:href="#LineHeadArrow2" fill="#908e8e"
			 transform="translate(0, 256)  rotate(90) "  /> <clipPath id="LineHeadMaskjK6KFu">
				<path d="M -2 -2 M 342 -2 L 446 -2 L 446 20 L 342 20 M -2 -2 L 3815 -2 L 3815 1671 L -2 1671" fill-rule="evenodd" clip-rule="evenodd" />
			</clipPath><g width="102" height="40" transform="translate(344, -20) scale(1) rotate(0)"><text xml:space="preserve" x="8.384033203125" y="14" width="85.23193359375" textLength="85.23193359375" lengthAdjust="spacingAndGlyphs" letter-spacing="0" font-family='"Noto Sans", Helvetica, OpenSans, Arial, sans-serif, Noto Sans Hebrew, Noto Sans, Noto Sans JP, Noto Sans KR' font-size="14" 
				fill="#222428" direction="ltr" >PaymentLink</text><text xml:space="preserve" x="0.41103363037109375" y="34" width="101.17793273925781" textLength="101.17793273925781" lengthAdjust="spacingAndGlyphs" letter-spacing="0" font-family='"Noto Sans", Helvetica, OpenSans, Arial, sans-serif, Noto Sans Hebrew, Noto Sans, Noto Sans JP, Noto Sans KR' font-size="14" 
				fill="#222428" direction="ltr" >→ Work Orders</text></g></g><g width="719px" height="184px"  transform="translate(2121.8, 1062.5) scale(1) rotate(0, 359.5, 92)"><path stroke-linecap="butt" 
			stroke="#908e8e" stroke-width="2" fill="transparent"
			d="M 0 184 L 711 184 Q 719 184 719 176 L 719 0" clip-path="url(#LineHeadMaskR7QDlU)"/> <use xlink:href="#LineHeadArrow2" fill="#908e8e"
			 transform="translate(719, 0)  rotate(-90) "  /> <clipPath id="LineHeadMaskR7QDlU">
				<path d="M -2 -2 M 396.00000000000006 162 L 505.00000000000006 162 L 505.00000000000006 204 L 396.00000000000006 204 M -2 -2 L 3815 -2 L 3815 1671 L -2 1671" fill-rule="evenodd" clip-rule="evenodd" />
			</clipPath><g width="107" height="40" transform="translate(398.00000000000006, 164) scale(1) rotate(0)"><text xml:space="preserve" x="4.0030517578125" y="14" width="98.993896484375" textLength="98.993896484375" lengthAdjust="spacingAndGlyphs" letter-spacing="0" font-family='"Noto Sans", Helvetica, OpenSans, Arial, sans-serif, Noto Sans Hebrew, Noto Sans, Noto Sans JP, Noto Sans KR' font-size="14" 
				fill="#222428" direction="ltr" >budget-​revised</text><text xml:space="preserve" x="0.7200546264648438" y="34" width="105.55989074707031" textLength="105.55989074707031" lengthAdjust="spacingAndGlyphs" letter-spacing="0" font-family='"Noto Sans", Helvetica, OpenSans, Arial, sans-serif, Noto Sans Hebrew, Noto Sans, Noto Sans JP, Noto Sans KR' font-size="14" 
				fill="#222428" direction="ltr" >(approved: true)</text></g></g><g width="766.5px" height="1224px"  transform="translate(1773.3, 278.5) scale(1) rotate(0, 383.25, 612)"><path stroke-linecap="butt" 
			stroke="#908e8e" stroke-width="2" fill="transparent"
			d="M 0 0 L 0 604 Q 0 612 8 612 L 758.5 612 Q 766.5 612 766.5 620 L 766.5 1224" clip-path="url(#LineHeadMasktNMQRD)"/> <use xlink:href="#LineHeadArrow2" fill="#908e8e"
			 transform="translate(766.5, 1224)  rotate(90) "  /> <clipPath id="LineHeadMasktNMQRD">
				<path d="M -2 -2 M 318.25 600 L 446.25 600 L 446.25 622 L 318.25 622 M -2 -2 L 3815 -2 L 3815 1671 L -2 1671" fill-rule="evenodd" clip-rule="evenodd" />
			</clipPath><g width="126" height="20" transform="translate(320.25, 602) scale(1) rotate(0)"><text xml:space="preserve" x="0.40606689453125" y="14" width="125.1878662109375" textLength="125.1878662109375" lengthAdjust="spacingAndGlyphs" letter-spacing="0" font-family='"Noto Sans", Helvetica, OpenSans, Arial, sans-serif, Noto Sans Hebrew, Noto Sans, Noto Sans JP, Noto Sans KR' font-size="14" 
				fill="#222428" direction="ltr" >payment-​approved</text></g></g><g width="2258.8px" height="664px"  transform="translate(1373, 278.5) scale(1) rotate(0, 1129.4, 332)"><path stroke-linecap="butt" 
			stroke="#908e8e" stroke-width="2" fill="transparent"
			d="M 0 0 L 0 324 Q 0 332 8 332 L 2250.8 332 Q 2258.8 332 2258.8 340 L 2258.8 664" clip-path="url(#LineHeadMaskuPVQ7z)"/> <use xlink:href="#LineHeadArrow2" fill="#908e8e"
			 transform="translate(2258.8, 664)  rotate(90) "  /> <clipPath id="LineHeadMaskuPVQ7z">
				<path d="M -2 -2 M 1072.4 310 L 1184.4 310 L 1184.4 352 L 1072.4 352 M -2 -2 L 3815 -2 L 3815 1671 L -2 1671" fill-rule="evenodd" clip-rule="evenodd" />
			</clipPath><g width="110" height="40" transform="translate(1074.4, 312) scale(1) rotate(0)"><text xml:space="preserve" x="5.5030517578125" y="14" width="98.993896484375" textLength="98.993896484375" lengthAdjust="spacingAndGlyphs" letter-spacing="0" font-family='"Noto Sans", Helvetica, OpenSans, Arial, sans-serif, Noto Sans Hebrew, Noto Sans, Noto Sans JP, Noto Sans KR' font-size="14" 
				fill="#222428" direction="ltr" >budget-​revised</text><text xml:space="preserve" x="0.47005462646484375" y="34" width="109.05989074707031" textLength="109.05989074707031" lengthAdjust="spacingAndGlyphs" letter-spacing="0" font-family='"Noto Sans", Helvetica, OpenSans, Arial, sans-serif, Noto Sans Hebrew, Noto Sans, Noto Sans JP, Noto Sans KR' font-size="14" 
				fill="#222428" direction="ltr" >(approved: false)</text></g></g><g width="860px" height="1284px"  transform="translate(235.8, 218.5) scale(1) rotate(0, 430, 642)"><path stroke-linecap="butt" 
			stroke="#908e8e" stroke-width="2" fill="transparent"
			d="M 860 0 L 8 0 Q 0 0 0 8 L 0 1284" clip-path="url(#LineHeadMaskdZT5no)"/> <use xlink:href="#LineHeadArrow2" fill="#908e8e"
			 transform="translate(0, 1284)  rotate(90) "  /> <clipPath id="LineHeadMaskdZT5no">
				<path d="M -2 -2 M -2 190.00000000000003 L 55 190.00000000000003 L 55 232.00000000000003 L -2 232.00000000000003 M -2 -2 L 3815 -2 L 3815 1671 L -2 1671" fill-rule="evenodd" clip-rule="evenodd" />
			</clipPath><g width="110" height="40" transform="translate(-55, 192.00000000000003) scale(1) rotate(0)"><text xml:space="preserve" x="5.5030517578125" y="14" width="98.993896484375" textLength="98.993896484375" lengthAdjust="spacingAndGlyphs" letter-spacing="0" font-family='"Noto Sans", Helvetica, OpenSans, Arial, sans-serif, Noto Sans Hebrew, Noto Sans, Noto Sans JP, Noto Sans KR' font-size="14" 
				fill="#222428" direction="ltr" >budget-​revised</text><text xml:space="preserve" x="0.47005462646484375" y="34" width="109.05989074707031" textLength="109.05989074707031" lengthAdjust="spacingAndGlyphs" letter-spacing="0" font-family='"Noto Sans", Helvetica, OpenSans, Arial, sans-serif, Noto Sans Hebrew, Noto Sans, Noto Sans JP, Noto Sans KR' font-size="14" 
				fill="#222428" direction="ltr" >(approved: false)</text></g></g><g width="1751.6px" height="196px"  transform="translate(1609, 1306.5) scale(1) rotate(0, 875.8, 98)"><path stroke-linecap="butt" 
			stroke="#908e8e" stroke-width="2" fill="transparent"
			d="M 0 196 L 0 106 Q 0 98 8 98 L 1743.6 98 Q 1751.6 98 1751.6 90 L 1751.6 0" clip-path="url(#LineHeadMaske6DnXZ)"/> <use xlink:href="#LineHeadArrow2" fill="#908e8e"
			 transform="translate(1751.6000000000001, 0)  rotate(-90) "  /> <clipPath id="LineHeadMaske6DnXZ">
				<path d="M -2 -2 M 809.3 86 L 940.3 86 L 940.3 108 L 809.3 108 M -2 -2 L 3815 -2 L 3815 1671 L -2 1671" fill-rule="evenodd" clip-rule="evenodd" />
			</clipPath><g width="129" height="20" transform="translate(811.3, 88) scale(1) rotate(0)"><text xml:space="preserve" x="0.7300643920898438" y="14" width="127.53987121582031" textLength="127.53987121582031" lengthAdjust="spacingAndGlyphs" letter-spacing="0" font-family='"Noto Sans", Helvetica, OpenSans, Arial, sans-serif, Noto Sans Hebrew, Noto Sans, Noto Sans JP, Noto Sans KR' font-size="14" 
				fill="#222428" direction="ltr" >work-​order-​created</text></g></g></svg>